<svg width="153" height="113" viewBox="0 0 153 113" fill="none" xmlns="http://www.w3.org/2000/svg">
<path d="M141.161 84.8104C147.278 72.979 152.255 58.4706 152.255 43.008C152.255 35.241 149.829 26.4118 145.765 19.3906C142.211 13.251 135.622 5.31882 124.402 2.39431C110.202 -1.30634 95.8152 2.14475 84.2549 4.9181C80.0771 5.92027 76.1309 6.86682 72.7508 7.33493C65.1708 8.3838 57.1624 8.23014 50.278 7.96418H50.2735C49.1964 7.92247 48.1441 7.87826 47.1283 7.83548C42.7788 7.65188 32.7618 7.47575 32.7618 7.47575C32.2151 5.15198 30.9689 3.24817 29.4134 2.36936C28.7544 2.00323 28.0349 1.81764 27.3078 1.82622C26.5807 1.83479 25.8645 2.03731 25.2117 2.41891C23.0721 3.57367 22.0461 6.13953 22.5311 9.03623C19.1028 10.796 15.7536 14.2988 13.7223 17.0532C11.9782 19.418 10.4993 23.1518 9.06846 26.7626C7.61164 30.4401 6.10545 34.2427 4.59807 35.7782C4.22908 36.151 3.90275 36.5799 3.62745 37.0538C3.62267 37.0538 3.61788 37.0506 3.61279 37.0496C3.29759 36.9739 2.9726 36.9776 2.65867 37.0604C2.34473 37.1432 2.04879 37.3033 1.78981 37.5303C1.53082 37.7574 1.31453 38.0464 1.15478 38.3789C0.995037 38.7114 0.895373 39.08 0.862181 39.4611C0.82899 39.8422 0.863003 40.2273 0.962039 40.5918C1.06108 40.9563 1.22295 41.2921 1.43728 41.5777C1.65161 41.8633 1.91366 42.0924 2.20664 42.2502C2.49961 42.408 2.81704 42.4912 3.13856 42.4943C3.41072 43.5046 3.77831 44.4749 4.23424 45.3864C7.26756 51.608 12.0659 55.4758 16.2993 58.8877C18.6331 60.7687 20.837 62.5456 22.5446 64.5299C23.8256 66.0707 24.9399 67.7963 25.8615 69.6666C25.8717 69.6905 25.8852 69.7108 25.8962 69.734C27.6295 73.1897 29.0044 77.4059 29.2611 81.4328C29.5857 86.5203 30.3538 100.257 30.5952 104.596C29.7611 104.912 28.9786 105.396 28.2818 106.027C27.7633 106.495 27.383 107.146 27.1957 107.888C27.0083 108.629 27.0237 109.423 27.2397 110.153C27.4446 110.899 27.8433 111.547 28.378 112.005C28.9126 112.463 29.5556 112.706 30.214 112.7H44.3921C44.8489 112.701 45.3002 112.582 45.7143 112.352C46.1284 112.123 46.4953 111.788 46.789 111.371C49.9246 106.928 57.7461 95.4781 62.6958 85.0896C81.8574 85.0671 94.9439 84.2386 102.577 82.5583C103.714 91.1236 105.216 100.883 105.765 104.403C105.291 104.667 104.843 104.992 104.429 105.373C103.862 105.894 103.445 106.613 103.239 107.43C103.032 108.247 103.045 109.121 103.276 109.929C103.507 110.737 103.944 111.438 104.526 111.935C105.109 112.432 105.807 112.699 106.523 112.699H119.812C120.599 112.698 121.361 112.377 121.972 111.788C126.355 107.552 134.374 97.8753 141.061 85.0036C141.098 84.9421 141.131 84.8776 141.161 84.8104ZM47.5068 44.1004C43.2201 54.8045 35.6745 63.4632 27.6367 66.9949C26.7138 65.2744 25.6374 63.678 24.4263 62.2336C22.5461 60.0485 20.2452 58.1943 17.8091 56.2306C13.6202 52.8536 9.28748 49.3619 6.56353 43.7746C4.90535 40.3737 5.5247 39.0568 6.34871 38.2175C8.29532 36.2346 9.85417 32.2993 11.5049 28.1324C12.8555 24.7223 14.2522 21.1963 15.7461 19.1717C17.5539 16.7199 20.7688 13.3294 23.8799 11.8427C24.1855 11.6962 24.4603 11.4712 24.6848 11.1839C26.3854 14.1458 30.4361 13.7091 31.4527 11.012C31.5237 10.8183 31.5762 10.6157 31.6095 10.4081C35.8908 11.0716 42.7127 10.8591 47.0334 11.0424C47.7659 11.0734 48.5211 11.1047 49.2858 11.1354C52.4368 21.6787 51.8153 33.3418 47.5068 44.1004ZM130.129 73.4892C127.619 72.9334 115.16 70.6884 104.711 77.9856C104.214 73.9612 103.875 70.6146 103.875 68.9789C103.875 68.5534 103.734 68.1453 103.481 67.8445C103.229 67.5436 102.886 67.3746 102.529 67.3746C102.172 67.3746 101.829 67.5436 101.577 67.8445C101.324 68.1453 101.183 68.5534 101.183 68.9789C101.183 70.8784 101.59 74.7933 102.166 79.3864C95.6468 80.8377 84.8961 81.6452 69.4859 81.8371C72.5537 79.6174 75 76.4312 76.7865 72.287C79.2744 66.5197 80.3739 59.0053 79.9664 50.5562C79.5075 41.0372 73.3684 28.2154 68.4354 17.9142C67.2928 15.5288 66.1989 13.2438 65.2878 11.2217C67.8822 11.0951 70.491 10.8776 73.0605 10.5218C76.5516 10.0391 80.5511 9.07937 84.7851 8.06187C96.0983 5.3477 110.178 1.9697 123.825 5.52739C142.575 10.416 149.562 31.1114 149.562 43.008C149.562 56.7005 145.479 69.6399 140.21 80.5112C138.663 77.7549 135.44 74.6664 130.129 73.4892Z" fill="black"/>
</svg>
